# xmcd
#
# Track frame offsets:
#  150
#  12714
#  26086
#  39827
#  49177
#  62039
#  75880
#  86699
#  99670
#  110840
#  123541
#  140528
#  154536
#  167506
#
# Disc length: 2413 seconds
#
# Revision: 2
# Processed by: cddbd v1.5.1PL0 Copyright (c) Steve Scherf et al.
# Submitted via: Collectorz.com_Music_Collector 6.9
#
DISCID=b1096b0e
DTITLE=Bo Weavil - Midnight Rumble With Bo Weavil
DYEAR=2001
DGENRE=
TTITLE0=Duckin' and Dogin'
TTITLE1=Dumped Me Like A Clown
TTITLE2=Boogie Blues
TTITLE3=Come On'n Boogie
TTITLE4=I Ain't Got A Dime
TTITLE5=Oh Mama
TTITLE6=Fool About You Baby
TTITLE7=Please Don't Leave Me Baby
TTITLE8=Talking Too Long Blues
TTITLE9=Hey Now Baby
TTITLE10=The Junker
TTITLE11=My Baby Makes Me Loose My Mind
TTITLE12=One Foot In The Grave
TTITLE13=Money Lalkin' Woman
EXTD=
EXTT0=
EXTT1=
EXTT2=
EXTT3=
EXTT4=
EXTT5=
EXTT6=
EXTT7=
EXTT8=
EXTT9=
EXTT10=
EXTT11=
EXTT12=
EXTT13=
PLAYORDER=
